<svg version="1.1" id="Layer_1" xmlns="http://www.w3.org/2000/svg" xmlns:xlink="http://www.w3.org/1999/xlink" x="0px" y="0px"
	 width="100%" viewBox="0 0 1024 1008" enable-background="new 0 0 1024 1008" xml:space="preserve">
<path fill="#000000" opacity="1.000000" stroke="none" 
	d="
M425.151611,922.605530 
	C421.171997,922.161011 417.434906,922.348389 413.930695,921.533691 
	C403.205170,919.040527 392.166840,917.838684 381.781647,913.935120 
	C380.315521,913.384033 378.867737,913.377930 377.363464,913.443848 
	C374.338379,913.576477 371.401093,913.576355 369.040985,911.067383 
	C368.317169,910.297852 366.952026,909.736084 365.887268,909.746826 
	C358.840149,909.817444 354.664825,904.808899 350.521240,900.505554 
	C341.120605,890.742676 329.894379,885.480957 316.622131,883.057434 
	C306.100403,881.136108 295.802063,878.360718 285.810608,873.598450 
	C275.692841,868.776062 269.853882,860.677551 264.114746,852.331238 
	C261.332794,848.285400 259.740601,843.088013 259.323120,837.532959 
	C258.844849,831.168884 256.523987,824.962891 253.819382,818.937561 
	C250.325424,811.153748 248.551285,802.817749 248.992508,794.116333 
	C249.485291,784.398376 246.901794,775.209351 243.697296,766.164856 
	C240.725754,757.778015 238.763031,749.242554 239.108566,740.239441 
	C239.309021,735.016357 235.454117,730.291687 237.039307,724.800903 
	C239.691147,715.615356 235.361694,706.596436 236.319427,697.409058 
	C237.193832,689.021057 237.911484,680.599670 238.207565,672.175781 
	C238.354599,667.992065 237.252899,663.887634 237.383194,659.521057 
	C237.894745,642.376160 240.522003,625.452454 241.792236,608.401611 
	C242.452759,599.534973 244.490509,590.487305 242.786499,581.791321 
	C241.035553,572.855835 240.113602,563.898621 239.312149,554.909485 
	C238.683304,547.856323 238.495834,540.637024 235.497131,534.223816 
	C230.676193,523.913513 229.286774,512.713196 226.561646,501.920197 
	C223.973206,491.668579 219.224930,483.122345 212.090378,475.787323 
	C209.461945,473.085052 210.688904,469.729218 209.167969,467.048248 
	C205.962860,461.398468 205.706787,454.347626 201.962982,449.243713 
	C196.762924,442.154541 197.917511,436.123718 201.620041,429.038300 
	C209.262604,414.413025 206.775284,397.860535 209.591721,382.290985 
	C210.332108,378.198059 210.354431,373.994507 213.142899,370.552551 
	C213.444016,370.180847 213.713806,369.653656 213.721619,369.193909 
	C213.852325,361.506653 219.421326,354.633057 217.104401,346.563293 
	C216.897354,345.842163 216.955765,344.658539 217.408432,344.193237 
	C222.723587,338.729584 220.777283,331.604248 221.656357,325.220551 
	C223.693466,310.427429 225.171967,295.557861 226.948090,280.727783 
	C227.193390,278.679626 228.308563,277.050995 230.180984,275.933960 
	C236.054657,272.429810 240.119293,267.190125 243.476959,261.411041 
	C245.388382,258.121216 248.250519,256.207794 251.644531,257.132294 
	C258.111572,258.893799 264.054321,256.509552 269.596161,254.661484 
	C281.757202,250.606079 294.062866,249.115463 306.466949,251.123306 
	C314.348328,252.399094 322.274017,254.293106 329.843597,257.524109 
	C334.065094,259.325989 338.516693,261.957886 343.996613,259.830444 
	C347.756256,258.370880 351.387878,261.193146 354.152802,263.748993 
	C356.096741,265.545959 353.137177,270.232513 349.552185,270.956940 
	C346.946869,271.483337 344.501160,271.084045 341.896210,269.775787 
	C324.619202,261.099091 306.514923,255.207275 286.916290,257.491974 
	C279.304138,258.379364 271.938751,261.387268 264.462769,263.435822 
	C263.023102,263.830292 261.616028,264.401703 260.152924,264.643341 
	C249.006104,266.484222 240.932755,273.001617 235.600464,282.403046 
	C232.157593,288.473267 232.460663,295.877808 231.777130,302.804688 
	C231.271408,307.929749 230.911057,313.070343 230.332672,318.186707 
	C229.698196,323.799103 229.145660,329.406830 230.319321,334.995087 
	C230.963593,338.062775 228.666046,340.404419 228.490158,343.125427 
	C227.895752,352.320679 223.753525,360.665924 222.429382,369.641144 
	C221.169006,378.184082 219.844299,386.768433 219.460052,395.375275 
	C219.086639,403.739899 217.029831,411.576782 214.757050,419.518433 
	C212.372284,427.851471 210.379532,436.756531 211.784988,445.108124 
	C212.921219,451.859802 214.726883,459.086456 219.215485,465.170349 
	C224.163239,471.876556 228.705322,478.986450 232.552063,486.374542 
	C237.534424,495.943695 239.651962,506.532593 241.321930,517.140991 
	C242.492905,524.579468 246.607391,530.995178 248.307129,538.323547 
	C249.578323,543.804321 250.022278,549.517212 250.592743,554.857727 
	C251.584305,564.140503 254.732330,573.447571 252.809708,582.968445 
	C252.237091,585.804016 254.154785,587.938416 254.398376,590.623535 
	C255.566238,603.497314 252.355698,616.020630 251.738602,628.748901 
	C251.048904,642.974487 248.305405,657.125916 249.239029,671.422241 
	C250.104523,684.675232 248.656738,697.820251 248.468735,711.010681 
	C248.374664,717.608765 250.027664,724.312134 251.532211,730.819458 
	C252.309296,734.180420 252.474991,737.474609 252.061493,740.687805 
	C251.118240,748.017822 254.853607,754.350586 255.825470,761.242859 
	C256.724884,767.621338 259.685547,773.362000 259.881439,780.203369 
	C260.040924,785.772766 261.666565,791.779236 262.765259,797.568726 
	C264.071198,804.450134 266.108429,811.181702 267.601654,818.020935 
	C269.392273,826.222473 270.294678,834.726868 274.619720,842.733582 
	C277.680878,848.400391 281.381226,852.981201 285.375061,857.667175 
	C290.344818,863.498291 297.268158,865.508850 304.172943,867.870605 
	C312.850830,870.838928 321.717590,870.910217 330.669159,870.939941 
	C333.395813,870.948975 335.805145,870.441284 338.304108,869.190369 
	C344.264618,866.206360 349.754028,868.663452 352.356506,874.898865 
	C353.636139,877.964783 354.569611,881.084839 355.500000,884.268982 
	C357.107422,889.770203 361.919647,892.666443 366.604553,895.722473 
	C372.644287,899.662354 380.072327,899.937683 385.991608,903.903015 
	C387.240479,904.739746 388.552094,904.212463 389.853149,904.276123 
	C393.779053,904.468140 397.624451,904.275024 401.278656,906.829346 
	C404.256042,908.910522 408.329926,908.575195 411.955139,908.349609 
	C415.056854,908.156677 417.986908,908.636414 420.757690,909.728760 
	C432.564758,914.383484 444.855011,912.876770 456.671844,911.150024 
	C462.053986,910.363525 467.818848,909.826904 473.095673,908.197632 
	C480.752472,905.833557 488.069275,902.388000 495.597076,899.580627 
	C502.395813,897.045044 509.080017,894.417236 515.244995,890.426331 
	C520.828064,886.812012 526.868225,883.907837 532.675415,880.634583 
	C540.730774,876.094116 549.031311,872.115540 557.667664,868.767151 
	C567.154968,865.088806 575.867065,859.689697 585.387451,856.015869 
	C593.041565,853.062134 600.901001,850.316223 607.944092,846.228516 
	C611.985840,843.882874 616.105164,841.330139 620.035583,838.611938 
	C630.946533,831.066162 638.886719,820.776428 646.965149,810.620667 
	C651.407288,805.036255 653.277222,797.946228 656.739136,791.764587 
	C660.769226,784.568176 663.860474,776.743469 665.842163,769.023560 
	C668.698364,757.897156 673.089661,747.306641 676.074646,736.234009 
	C678.197021,728.361267 681.380554,720.436401 683.266052,712.522766 
	C685.811890,701.837646 690.423889,691.952698 693.336121,681.438293 
	C695.355225,674.148193 697.816650,666.779236 700.268433,659.536133 
	C704.121887,648.151917 707.931274,636.718079 711.843201,625.345642 
	C715.008240,616.144409 719.599365,607.433716 722.764648,598.232544 
	C725.273376,590.940125 726.607788,583.240845 728.412109,575.709778 
	C730.604126,566.560974 732.495117,557.351501 734.883667,548.233521 
	C736.573608,541.782410 737.467285,534.959778 738.913208,528.351685 
	C740.593506,520.672424 741.861023,512.859924 744.661926,505.477783 
	C746.434753,500.805176 746.038452,495.817047 747.486877,490.994263 
	C749.128906,485.527008 751.797119,480.211975 752.415833,474.601105 
	C753.016541,469.153351 755.221924,464.196930 756.341553,458.960052 
	C757.751648,452.364197 759.365112,445.632202 761.268250,439.051086 
	C764.842163,426.692322 765.916199,413.987061 763.013245,401.300934 
	C761.242004,393.560333 760.660706,385.865814 760.603394,377.914368 
	C760.512512,365.302521 762.404846,352.764740 761.661987,340.191803 
	C761.425293,336.186310 761.089966,332.023865 759.105469,328.148041 
	C754.242920,318.651581 753.304260,307.885986 749.822388,297.927002 
	C748.837769,295.110626 748.126099,292.015411 746.438416,289.656921 
	C731.361633,268.587952 714.824219,249.019638 689.826782,239.112671 
	C683.058533,236.430298 675.647156,235.855438 668.627014,233.990097 
	C658.477966,231.293365 647.970154,230.778641 637.800781,228.374329 
	C629.856262,226.496017 621.968750,226.946320 614.026672,228.257156 
	C598.549255,230.811676 583.638733,235.633728 568.547913,239.696198 
	C554.280640,243.536972 540.226196,248.162048 525.995117,252.145630 
	C515.468628,255.092194 504.941681,258.188721 494.317505,260.578003 
	C489.192566,261.730560 484.378967,264.021271 479.046753,264.536560 
	C475.954437,264.835419 472.608612,265.587860 471.750336,270.033112 
	C471.343628,272.139587 468.367950,274.101196 466.311615,271.567566 
	C463.132629,267.650726 459.434967,267.855286 454.933899,267.754761 
	C445.158936,267.536407 435.423065,268.340973 425.670074,268.155121 
	C406.818542,267.795898 388.561218,270.598389 370.723907,276.976349 
	C361.485840,280.279572 352.368439,283.645355 343.682220,288.232208 
	C340.634003,289.841858 338.069214,291.606598 336.322510,294.656403 
	C334.842468,297.240662 332.708221,298.854004 329.531250,297.326080 
	C329.048157,294.932343 331.578369,294.188934 331.681702,292.268494 
	C332.010803,286.153412 333.173492,281.601685 340.956299,280.060486 
	C347.153290,278.833282 353.375488,275.884674 358.856293,271.853821 
	C361.246368,270.096039 365.050537,271.090973 368.321228,270.230133 
	C391.925873,264.017670 415.979034,261.349213 440.417267,263.059692 
	C442.000519,263.170502 443.932068,264.447174 444.998505,262.587067 
	C446.277618,260.356018 446.207550,257.727661 445.208252,255.369202 
	C444.505890,253.711502 443.564026,251.971481 442.259857,250.783249 
	C435.369537,244.505325 431.168610,235.899445 424.001129,229.882980 
	C422.686798,228.779755 421.626312,227.334091 421.459442,225.678513 
	C420.487488,216.034348 416.111633,208.001053 410.048218,200.699112 
	C409.432983,199.958191 408.711426,198.903137 408.782837,198.056625 
	C409.500702,189.549133 404.892090,182.602356 402.287537,175.062988 
	C401.140717,171.743240 402.830750,168.974426 404.549805,166.236267 
	C405.204651,166.406265 405.991028,166.408539 406.084015,166.663589 
	C410.071625,177.601212 419.882568,185.048065 423.730774,196.076126 
	C424.025970,196.922043 424.984344,197.964203 425.797791,198.134384 
	C432.692657,199.576736 433.973358,205.734055 436.469421,210.769150 
	C437.954254,213.764297 439.816650,215.750351 443.101837,216.970459 
	C450.962738,219.889954 461.243774,236.662491 460.687286,244.968964 
	C459.996460,255.281235 467.492279,260.478607 477.488953,258.501587 
	C496.241913,254.792755 513.197388,245.749146 531.587036,241.304214 
	C543.210938,238.494583 554.270630,233.680923 566.352417,232.369766 
	C572.143372,231.741318 577.704956,228.952454 583.356995,227.101120 
	C596.785767,222.702545 610.518860,219.407639 624.649841,219.372910 
	C631.685364,219.355591 638.836792,219.609711 645.964355,221.166550 
	C652.361511,222.563828 659.015930,223.079010 665.465027,224.619644 
	C682.480164,228.684357 699.348511,232.475006 713.760437,243.774918 
	C730.423157,256.839539 744.934265,271.655609 755.647400,289.830109 
	C759.270081,295.975800 760.000916,303.635895 762.066895,310.591309 
	C764.276245,318.029266 764.760132,326.351288 771.041199,332.198364 
	C772.240601,333.314880 773.508911,335.264557 772.718384,336.665833 
	C769.023560,343.214874 771.800415,350.319702 770.579590,357.091156 
	C767.964417,371.596222 770.658691,386.026947 772.007996,400.464447 
	C772.264526,403.209229 773.581543,405.529083 774.344299,408.064545 
	C776.567017,415.452637 773.456116,422.563232 773.099915,429.816345 
	C772.637207,439.235779 769.315125,448.223877 766.995239,457.325104 
	C765.791443,462.047668 765.169861,466.920197 762.934021,471.524597 
	C761.244873,475.003235 761.260254,479.315216 759.976562,483.270386 
	C757.983154,489.412262 755.775330,495.944641 755.157959,502.102570 
	C754.261841,511.040039 751.250549,519.364685 749.675415,528.031128 
	C748.593201,533.985046 747.162292,540.186707 745.808777,546.181152 
	C743.886047,554.696167 742.366943,563.372192 740.181763,571.836243 
	C737.255615,583.170349 735.642090,594.793091 731.028381,605.777893 
	C723.823242,622.932556 716.862183,640.260742 711.179626,657.959106 
	C707.406311,669.711426 702.871094,681.253418 699.743591,693.160828 
	C696.735596,704.613037 693.183350,715.923096 690.402039,727.459412 
	C688.528320,735.230957 685.860229,743.071777 683.155212,750.761780 
	C681.471069,755.549561 678.781433,760.341614 678.901672,765.785706 
	C678.969238,768.843567 676.868835,771.324341 675.845886,774.016663 
	C671.724731,784.863281 668.193298,795.936401 662.215271,806.117249 
	C658.313538,812.762146 655.148438,819.898804 650.037659,825.702332 
	C642.687988,834.048218 635.985046,843.052490 625.904114,848.709045 
	C621.695190,851.070740 618.398865,855.040466 613.812256,857.019897 
	C606.527710,860.163513 599.867981,864.610352 592.000244,866.615479 
	C588.648682,867.469666 585.417786,869.525574 582.266418,871.095886 
	C574.669067,874.881653 566.920288,878.213440 559.110046,881.494873 
	C543.829651,887.914734 529.943787,896.990845 515.374023,904.764954 
	C507.914185,908.745483 499.686737,911.500183 492.090332,915.019348 
	C486.113312,917.788147 479.227875,916.646240 473.867676,921.129089 
	C470.962097,923.559326 466.416779,921.881348 462.621368,922.114258 
	C459.471069,922.307617 456.498566,922.651489 453.378296,923.537903 
	C444.110229,926.170898 434.709595,926.085693 425.151611,922.605530 
z"/>
<path fill="#000000" opacity="1.000000" stroke="none" 
	d="
M512.258179,519.955322 
	C506.178040,520.150085 500.520203,520.240112 494.862946,520.359192 
	C487.025909,520.524170 479.826416,518.022156 472.980988,514.631531 
	C469.984680,513.147339 466.678864,513.646179 463.673553,511.630249 
	C455.074219,505.861877 453.623138,497.980957 454.402252,488.431946 
	C454.962280,481.568207 455.866638,474.760620 456.705414,467.948761 
	C457.205109,463.890533 458.564789,459.919342 459.743408,455.970428 
	C460.472107,453.529083 460.209656,451.743042 458.455688,449.640808 
	C454.307587,444.669037 455.273865,441.775543 461.406311,439.493286 
	C464.383667,438.385254 466.040436,436.521210 465.839172,433.147064 
	C465.691162,430.666199 465.488922,427.993774 468.517273,426.805786 
	C471.577332,425.605377 474.136902,426.100922 476.775696,428.341400 
	C480.937134,431.874634 485.618683,433.651825 490.842743,430.110199 
	C491.352081,429.764893 492.117310,429.774689 492.771729,429.669098 
	C498.013916,428.823029 503.394409,429.862091 508.567932,427.093903 
	C511.481873,425.534790 515.111755,426.698395 517.999268,429.639832 
	C523.863464,435.613495 530.806091,439.493317 539.685730,437.869507 
	C544.668640,436.958282 549.647034,438.161041 552.395081,441.950012 
	C556.193726,447.187500 558.123901,453.651093 559.714050,459.986481 
	C560.040466,461.287048 558.978760,463.343597 557.945496,464.510223 
	C552.218018,470.976959 552.749451,478.088074 555.470520,485.457855 
	C558.465698,493.569763 557.503479,497.247040 549.597656,500.955566 
	C543.548279,503.793274 538.044922,507.413391 532.421387,510.867126 
	C526.186401,514.696472 518.809204,515.888184 512.258179,519.955322 
M544.640808,466.070007 
	C544.790039,463.718964 544.883850,461.372101 543.214661,459.420319 
	C542.380127,458.444519 542.354492,457.561707 542.739502,456.257019 
	C543.990417,452.017242 541.067078,447.621765 536.585815,447.768829 
	C531.123230,447.948029 526.638611,445.608368 521.935791,443.617462 
	C516.919006,441.493744 511.320892,437.405914 506.627319,438.824860 
	C498.341217,441.329773 489.808960,438.615295 481.581421,441.947327 
	C477.890228,443.442169 475.441895,444.687653 474.528961,448.224762 
	C473.387817,452.646118 471.999329,457.191742 471.383789,461.521637 
	C470.096497,470.576630 467.127197,479.269409 466.394592,488.418457 
	C465.615448,498.149200 466.880432,499.519287 475.868774,503.294128 
	C480.426392,505.208191 485.436462,504.904510 489.478607,506.963867 
	C496.064087,510.318939 502.928802,509.677917 508.810425,507.774231 
	C520.085999,504.124634 530.383667,497.824768 540.259644,491.211823 
	C542.980896,489.389679 545.173706,486.277985 544.722778,481.899963 
	C544.212280,476.943237 542.908325,471.857483 544.640808,466.070007 
z"/>
<path fill="#000000" opacity="1.000000" stroke="none" 
	d="
M565.350464,666.704468 
	C568.296692,673.412048 567.016174,675.832458 560.286194,678.598999 
	C548.052795,683.627869 535.335449,687.238098 522.668396,690.781006 
	C516.633911,692.468811 509.783325,691.287231 503.302032,691.317017 
	C494.658661,691.356812 485.910645,692.134094 477.402069,691.057556 
	C469.680847,690.080627 461.762970,688.864746 454.456757,685.729187 
	C451.030487,684.258789 447.309235,685.115234 443.829468,683.633118 
	C434.239075,679.548340 423.802826,678.013672 413.787994,675.637939 
	C407.809387,674.219727 401.852509,672.291443 395.831635,670.890442 
	C389.651611,669.452271 383.438263,667.730713 377.608429,664.976257 
	C374.463867,663.490601 370.896271,663.849548 367.511078,662.757080 
	C358.668152,659.903259 349.566284,656.860535 340.425873,656.328491 
	C335.691925,656.052979 333.086609,654.953857 331.279388,651.546143 
	C329.762817,648.686523 330.687073,645.508423 333.382202,643.500366 
	C336.541656,641.146301 340.260193,641.345703 343.189880,643.568420 
	C345.543762,645.354370 348.131134,645.119446 350.502808,645.986206 
	C358.517487,648.915283 367.079987,648.796143 375.287384,651.229980 
	C384.515564,653.966431 393.476288,657.705078 403.030823,659.824524 
	C409.152802,661.182617 415.859314,661.954468 421.941895,664.728149 
	C426.595276,666.849976 432.045441,667.246033 437.157806,668.331482 
	C440.211884,668.979858 443.512299,668.815857 445.858948,671.497437 
	C446.354950,672.064148 447.266113,672.544739 448.007507,672.577515 
	C457.447083,672.994141 466.236115,677.118042 475.890381,676.868103 
	C486.132965,676.602966 496.423401,678.079712 506.660675,677.760437 
	C512.238647,677.586426 517.872070,676.972168 523.492065,676.604370 
	C532.734558,675.999512 541.187683,672.310791 549.453674,668.369324 
	C551.132996,667.568542 552.151611,665.625488 552.414734,663.911499 
	C552.822632,661.254395 554.683472,659.869995 556.351379,658.361267 
	C559.416443,655.588623 562.478699,656.605042 563.625427,660.578552 
	C564.177795,662.492798 564.717896,664.410522 565.350464,666.704468 
z"/>
<path fill="#000000" opacity="1.000000" stroke="none" 
	d="
M347.600037,468.111816 
	C345.770874,462.335846 347.402130,456.921936 347.548645,451.528229 
	C347.667419,447.157074 347.329956,443.413818 344.170135,440.035614 
	C340.282257,435.878998 341.661652,431.343506 347.233582,429.965363 
	C349.388489,429.432281 350.800385,428.776581 351.677795,426.662598 
	C352.737396,424.109467 354.661072,422.374390 357.441162,421.545624 
	C360.680878,420.579773 361.624634,418.169434 360.126190,415.307739 
	C358.304474,411.828583 361.025299,410.303986 362.816986,408.697968 
	C364.835175,406.888947 367.300385,407.623688 369.144379,409.367676 
	C373.872009,413.838959 376.860138,419.666656 380.839203,424.732300 
	C386.403717,431.816315 389.978699,440.435394 397.467041,446.049469 
	C399.399536,447.498260 398.709595,449.257599 397.362793,450.811157 
	C395.618958,452.822601 393.946533,455.374786 390.774750,453.609009 
	C388.774841,452.495636 387.058685,450.864227 385.244568,449.428131 
	C383.733429,448.231842 381.758698,447.610748 381.245453,449.809692 
	C380.446625,453.232361 378.730621,456.779968 380.094757,460.361206 
	C382.464508,466.582550 384.670715,472.897217 388.688354,478.362732 
	C390.521179,480.856110 392.798828,482.708679 395.553772,483.965271 
	C397.978577,485.071259 400.511688,486.439728 399.242096,489.430481 
	C397.811493,492.800446 395.456970,490.042969 393.385376,489.664825 
	C388.631073,488.796997 384.798187,484.786255 378.878418,487.410248 
	C374.369476,489.408844 369.061249,483.152161 367.779968,476.276978 
	C367.007141,472.130035 365.930115,467.955200 361.781677,465.535095 
	C359.948792,467.238373 361.306976,468.444733 362.176849,469.477875 
	C364.329651,472.034851 363.573029,474.371368 361.932709,476.739044 
	C359.641205,480.046722 356.103271,479.811096 352.887054,479.399597 
	C350.403229,479.081818 349.148438,476.817017 348.830139,474.295624 
	C348.583130,472.339203 349.039185,470.265350 347.600037,468.111816 
z"/>
<path fill="#000000" opacity="1.000000" stroke="none" 
	d="
M616.370300,398.666931 
	C613.093933,392.043762 614.899109,384.639923 611.336304,378.354034 
	C609.793823,375.632751 613.242676,372.543793 617.297119,372.389526 
	C624.791016,372.104370 626.978271,368.247162 623.597595,361.260437 
	C623.381958,360.814880 622.998901,360.443207 622.821533,359.987457 
	C621.938232,357.718048 620.103333,354.821289 622.692200,353.254578 
	C625.233398,351.716705 628.399292,351.822815 631.502136,353.752228 
	C640.050781,359.067932 643.418640,368.037537 648.112549,376.102692 
	C649.107483,377.812286 649.858398,379.725037 651.118042,381.207428 
	C654.272705,384.919830 657.285278,388.258606 652.620728,393.175507 
	C651.282532,394.586060 652.336975,397.221985 653.930664,399.061737 
	C655.201050,400.528351 657.113037,401.543762 657.668701,403.991028 
	C653.825073,406.638580 649.935913,409.222534 644.657410,408.609619 
	C644.412354,411.752655 648.407166,414.959137 643.511414,417.407288 
	C639.301392,419.512604 635.754272,420.074615 632.221497,416.495361 
	C631.519775,415.784424 630.593628,415.532532 629.484680,415.673523 
	C618.022278,417.130981 616.590393,415.858826 616.646118,404.495392 
	C616.654968,402.681458 616.542358,400.866974 616.370300,398.666931 
z"/>
</svg>